            <svg
              id="BodeaLogo"
              xmlns="http://www.w3.org/2000/svg"
              width="124.642"
              height="37.36"
              viewBox="0 0 150.642 100.36"
            >
              <g
                id="Group_171692"
                data-name="Group 171692"
                transform="translate(0 10.419)"
              >
                <path
                  id="Path_101111"
                  data-name="Path 101111"
                  d="M196,299.654a1.7,1.7,0,0,1,1.705-1.7h4.288a6.771,6.771,0,0,1,2.495.444,5.77,5.77,0,0,1,1.956,1.248,5.646,5.646,0,0,1,1.285,1.947,6.727,6.727,0,0,1,.464,2.542v2.174a4.266,4.266,0,0,1-.274,1.531,5.293,5.293,0,0,1-.7,1.285,4.175,4.175,0,0,1-.955.936,2.472,2.472,0,0,1-1.058.444,4.087,4.087,0,0,1,2.164,1.332,5.161,5.161,0,0,1,.907,1.578,6.669,6.669,0,0,1,.368,2.362v2.306a6.17,6.17,0,0,1-.483,2.477,5.653,5.653,0,0,1-1.314,1.9,5.886,5.886,0,0,1-1.928,1.21,6.315,6.315,0,0,1-2.306.425H197.3a1.3,1.3,0,0,1-1.3-1.3S196,305.287,196,299.654Zm3.347,1.565v8.2h2.382a4.2,4.2,0,0,0,.9-.117,3.092,3.092,0,0,0,1-.428,2.741,2.741,0,0,0,.823-.847,2.561,2.561,0,0,0,.34-1.392v-2.221A3.166,3.166,0,0,0,203.96,302a3,3,0,0,0-2.136-.779Zm0,11.638v8h2.892a2.855,2.855,0,0,0,1.267-.26,2.659,2.659,0,0,0,.879-.676,2.854,2.854,0,0,0,.52-.909,2.943,2.943,0,0,0,.171-.962v-2.078a3.489,3.489,0,0,0-.265-1.438,2.763,2.763,0,0,0-.69-.962,2.717,2.717,0,0,0-.964-.546,3.524,3.524,0,0,0-1.088-.173Z"
                  transform="translate(-196 -297.55)"
                  fill="#353839"
                />
                <path
                  id="Path_101112"
                  data-name="Path 101112"
                  d="M316.79,301.03a6.073,6.073,0,0,1,.52-2.542,5.949,5.949,0,0,1,1.409-1.956,6.358,6.358,0,0,1,2.07-1.257,7.071,7.071,0,0,1,2.505-.444,6.994,6.994,0,0,1,2.486.444,6.473,6.473,0,0,1,2.08,1.257,5.909,5.909,0,0,1,1.417,1.956,6.076,6.076,0,0,1,.52,2.542v14.557a5.95,5.95,0,0,1-1.947,4.489,6.427,6.427,0,0,1-2.07,1.248,7.077,7.077,0,0,1-2.505.444,6.859,6.859,0,0,1-2.495-.453,6.486,6.486,0,0,1-2.061-1.267,5.927,5.927,0,0,1-1.928-4.461Zm3.572,14.405a3.291,3.291,0,0,0,.218,1.191,3.093,3.093,0,0,0,.6.983,2.8,2.8,0,0,0,2.1.908,3.02,3.02,0,0,0,1.21-.237,2.819,2.819,0,0,0,.936-.643,2.928,2.928,0,0,0,.6-.955,3.146,3.146,0,0,0,.218-1.172V301.2a3.371,3.371,0,0,0-.218-1.2,3.092,3.092,0,0,0-.6-1,2.923,2.923,0,0,0-.926-.68,2.734,2.734,0,0,0-1.182-.255,2.784,2.784,0,0,0-1.2.255,2.929,2.929,0,0,0-.926.68,3.092,3.092,0,0,0-.6,1,3.371,3.371,0,0,0-.218,1.2v14.234Z"
                  transform="translate(-301.407 -294.828)"
                  fill="#353839"
                />
                <path
                  id="Path_101113"
                  data-name="Path 101113"
                  d="M445.927,299.708a1.767,1.767,0,0,1,1.766-1.763l4.4-.005a7.43,7.43,0,0,1,2.552.464,5.861,5.861,0,0,1,2.022,1.267,5.659,5.659,0,0,1,1.323,2.013,7.235,7.235,0,0,1,.472,2.685v13.253a7.207,7.207,0,0,1-.483,2.713,5.846,5.846,0,0,1-1.332,2.033,5.745,5.745,0,0,1-2.033,1.276,7.21,7.21,0,0,1-2.561.444h-4.752a1.376,1.376,0,0,1-1.378-1.373C445.927,322.655,445.913,304.713,445.927,299.708Zm3.506,21.145h2.416a3.069,3.069,0,0,0,1.267-.255,2.835,2.835,0,0,0,.964-.7,3.025,3.025,0,0,0,.6-1.049,3.983,3.983,0,0,0,.208-1.3V304.481a3.358,3.358,0,0,0-.793-2.382,2.948,2.948,0,0,0-2.174-.889h-2.492Z"
                  transform="translate(-414.092 -297.541)"
                  fill="#353839"
                />
                <path
                  id="Path_101114"
                  data-name="Path 101114"
                  d="M572.81,299.331a1.425,1.425,0,0,1,1.425-1.391h6.878a.507.507,0,0,1,.359.141.613.613,0,0,1,.151.464v2.08a.579.579,0,0,1-.151.453.529.529,0,0,1-.359.132h-4.731v8.3h4.587a.674.674,0,0,1,.387.122.5.5,0,0,1,.18.444v2.08a.527.527,0,0,1-.18.453.644.644,0,0,1-.387.132h-4.587v8.106h4.75a.633.633,0,0,1,.378.122.468.468,0,0,1,.171.406V323.5a.541.541,0,0,1-.171.453.6.6,0,0,1-.378.132h-7.058a1.241,1.241,0,0,1-1.24-1.238C572.829,318.476,572.815,303.9,572.81,299.331Z"
                  transform="translate(-524.821 -297.541)"
                  fill="#353839"
                />
                <path
                  id="Path_101115"
                  data-name="Path 101115"
                  d="M678.466,321.528a.429.429,0,0,1-.4-.218.969.969,0,0,1-.127-.5V310.075h-5.658v10.773a1.05,1.05,0,0,1-.1.481.4.4,0,0,1-.391.2h-2.475a.379.379,0,0,1-.327-.189.859.859,0,0,1-.127-.492V301.185a5.853,5.853,0,0,1,.5-2.408,6.333,6.333,0,0,1,3.338-3.286,6.052,6.052,0,0,1,2.4-.481,6.127,6.127,0,0,1,2.411.481,6.309,6.309,0,0,1,3.347,3.286,5.852,5.852,0,0,1,.5,2.408v19.625a1.192,1.192,0,0,1-.1.492.4.4,0,0,1-.409.227h-2.383Zm-6.186-14.587h5.658v-5.585a3.349,3.349,0,0,0-.209-1.181,3.064,3.064,0,0,0-.591-.982,2.975,2.975,0,0,0-.9-.68,2.666,2.666,0,0,0-2.275,0,2.825,2.825,0,0,0-.891.68,3.15,3.15,0,0,0-.582.982,3.321,3.321,0,0,0-.209,1.181v5.585Z"
                  transform="translate(-608.639 -294.985)"
                  fill="#353839"
                />
                <path
                  id="Path_101116"
                  data-name="Path 101116"
                  d="M857.28,298.63a.8.8,0,0,1,.141-.492.5.5,0,0,1,.425-.188h2.439a.5.5,0,0,1,.425.188.8.8,0,0,1,.141.492v24.783a.832.832,0,0,1-.132.5.5.5,0,0,1-.434.18h-2.439a.5.5,0,0,1-.434-.18.832.832,0,0,1-.133-.5Z"
                  transform="translate(-773.063 -297.55)"
                  fill="#353839"
                />
                <path
                  id="Path_101117"
                  data-name="Path 101117"
                  d="M912.794,320.673a.967.967,0,0,1-.113.483.437.437,0,0,1-.417.2h-2.571a.376.376,0,0,1-.331-.189.892.892,0,0,1-.122-.492V300.993a5.681,5.681,0,0,1,.52-2.411,6.357,6.357,0,0,1,1.409-1.966,6.632,6.632,0,0,1,2.061-1.323,6.716,6.716,0,0,1,5,0,6.615,6.615,0,0,1,2.07,1.323,6.341,6.341,0,0,1,1.409,1.966,5.679,5.679,0,0,1,.52,2.411v19.642a1.019,1.019,0,0,1-.122.492.442.442,0,0,1-.425.227h-2.458a.447.447,0,0,1-.425-.218,1,1,0,0,1-.122-.5V301.164a3.218,3.218,0,0,0-.218-1.182,3.074,3.074,0,0,0-.614-.983,3.025,3.025,0,0,0-.936-.68,2.869,2.869,0,0,0-2.364,0,2.928,2.928,0,0,0-.926.68,3.141,3.141,0,0,0-.6.983,3.22,3.22,0,0,0-.218,1.182v19.51Z"
                  transform="translate(-818.405 -294.81)"
                  fill="#353839"
                />
                <path
                  id="Path_101118"
                  data-name="Path 101118"
                  d="M1039.6,316.58a3.1,3.1,0,0,0,.6.992,2.894,2.894,0,0,0,.936.68,2.825,2.825,0,0,0,1.21.255,2.783,2.783,0,0,0,1.2-.255,2.834,2.834,0,0,0,.917-.68,3.066,3.066,0,0,0,.586-.992,3.428,3.428,0,0,0,.208-1.191V313.5a.941.941,0,0,1,.122-.577.487.487,0,0,1,.387-.141h2.287a.606.606,0,0,1,.425.132.765.765,0,0,1,.141.548v2.1a6.378,6.378,0,0,1-.492,2.542,5.8,5.8,0,0,1-1.351,1.956,6.048,6.048,0,0,1-2.013,1.257,6.794,6.794,0,0,1-2.458.444,7.047,7.047,0,0,1-2.505-.444,6.323,6.323,0,0,1-2.069-1.257,5.961,5.961,0,0,1-1.409-1.956,6.076,6.076,0,0,1-.52-2.542V301.021a6.081,6.081,0,0,1,1.853-4.414,6.259,6.259,0,0,1,2.061-1.314,6.967,6.967,0,0,1,2.59-.472,6.431,6.431,0,0,1,2.666.52,5.679,5.679,0,0,1,1.937,1.4,6.06,6.06,0,0,1,1.191,2.013,6.888,6.888,0,0,1,.406,2.345v1.569a1.163,1.163,0,0,1-.113.6.486.486,0,0,1-.434.171H1045.7a.461.461,0,0,1-.425-.171,1.1,1.1,0,0,1-.1-.548v-1.531a3.573,3.573,0,0,0-.2-1.191,3.138,3.138,0,0,0-.567-1,2.731,2.731,0,0,0-.889-.69,2.6,2.6,0,0,0-1.163-.255,2.867,2.867,0,0,0-1.191.246,2.9,2.9,0,0,0-.945.671,3.006,3.006,0,0,0-.614.992,3.3,3.3,0,0,0-.218,1.191v14.234A3.3,3.3,0,0,0,1039.6,316.58Z"
                  transform="translate(-928.856 -294.819)"
                  fill="#353839"
                />
                <path
                  id="Path_101119"
                  data-name="Path 101119"
                  d="M1146.041,476.141a.659.659,0,0,1,.171-.5.56.56,0,0,1,.4-.16h2.514a.473.473,0,0,1,.444.208.917.917,0,0,1,.122.472v2.212a.609.609,0,0,1-.18.492.553.553,0,0,1-.35.152h-2.571a.663.663,0,0,1-.35-.132.548.548,0,0,1-.2-.492v-2.25Z"
                  transform="translate(-1025.048 -452.471)"
                  fill="#353839"
                />
              </g>
              <path
                id="Path_101120"
                data-name="Path 101120"
                d="M596.207,213.891a2.244,2.244,0,0,1,1.656-.891h1.274s1.019,0,.521.891c-.642,1.15-3.068,5.731-3.068,5.731a1.671,1.671,0,0,1-1.368.717h-1.882s-.7-.218,0-1.423S596.207,213.891,596.207,213.891Z"
                transform="translate(-542.463 -213)"
                fill="#adced0"
              />
            </svg>